<svg version="1" xmlns="http://www.w3.org/2000/svg" width="360" height="360" viewBox="0 0 270.000000 270.000000"><path d="M125 16.6c-5.9 2.2-13 7.1-13.1 9.2 0 .9-.2 3-.3 4.7-1.1 11.5-1.9 32.3-2.1 51-.1 15.6-.5 22.7-1.4 24.4-1 1.9-1 2.5-.1 3.1 1.3.8 1 14-.7 41.5-.3 6-.7 16.8-.7 24-.1 15.1-.5 14.7 10.2 10.9 10.6-3.7 11-4.4 11-18.7.1-11.9.6-19.4 1.4-20.2.6-.7 9.4 13.1 19.8 31 5.1 8.8 12.4 20.8 16.3 26.7 8.5 13 9.7 13.6 19 9 3.4-1.7 6.2-3 6.3-2.9.2.1.5 3.1.8 6.7 1.6 19.1 2.1 20.5 7 19.4 5-1 13.4-5.3 15.4-7.9 1.7-2.1 1.7-2.9.5-11.2-.7-4.8-1.6-14-2-20.3-.9-13.2-1.1-71.6-.2-72.4.3-.3 2.3-.8 4.5-1.1 2.1-.3 5-.8 6.4-1 1.4-.2 4.5-.7 7-1 9-1.2 10.6-1.6 15.7-4.1 5.4-2.6 9.7-6.9 8.7-8.6-.6-1-9.5-.5-15.4.7-1.4.3-4.3.8-6.5 1.1-2.2.3-7 1.1-10.6 1.8-7.9 1.5-8.9 1.2-8.3-2.2 3.3-19.3 7.1-34.1 9.4-36.5.4-.5 2.3 1.4 4.1 4.2 3.9 5.9 5.1 6.2 12.6 2.7 7.1-3.4 11.3-6.6 11.3-8.9 0-2.3-4.3-8.4-8.2-11.5-5.8-4.8-15.3-3.6-25.4 3.1-6.1 4-8.7 6.7-13.5 14.1-6.5 9.8-10.4 23.6-11.8 41.7-.1.4-1.5.9-3.1 1.3-4.8.9-17.4 7.1-19.8 9.6-5.3 5.7-1.2 6.4 10.8 2 4.5-1.7 8.8-3 9.6-3 1.2 0 1.3 1.7.7 10.2-.4 5.7-.7 21-.7 34 .1 22.3 0 23.5-1.6 21.5-1.9-2.5-9.6-15.2-22.3-36.9-7.2-12.1-13.5-21.4-19.8-29.4-.6-.7.9-2.3 4.4-4.7 23.5-15.6 36.9-49 22.4-55.9-6.6-3.1-20.2.2-33.7 8.2-2.9 1.7-5.7 3.2-6.2 3.3-1.3.2-1.4-15.8-.3-36.8 1.4-25.6 1.3-27-1-27.2-1.1-.1-4 .5-6.5 1.3zm28.5 60.8c1.2.9 1.9 2.9 2.2 6.7.5 6.8-2.1 14.6-7.5 22.6-5.7 8.4-9 11.1-13.7 11.5l-4 .3.2-13.3c.2-12.8.3-13.3 3-16.9C137.4 83.4 147 76 149.6 76c1.1 0 2.8.6 3.9 1.4zM76.5 80.4c-5.2 1.3-10.1 3.6-14.6 6.7L59.2 89l-.6-2.6c-.7-2.5-1-2.6-4.7-2-4.6.7-11.1 3.8-14.9 7-2.4 2-2.5 2.6-2.7 14.1-.3 21.8-.5 26-1.8 29.7-.8 2.5-.9 4-.2 4.7.9.9 1 10.8.2 20.6-.1 2.2-.6 11.2-1 20s-.8 18.5-1 21.5c-.2 3-.6 16-1 28.7l-.7 23.3h3.3c3.9 0 14.6-4.8 17.1-7.6 1.4-1.7 1.8-5.2 2.4-22.4.3-11.3.7-21.1.7-21.8 0-.7 1.5-1.2 3.8-1.2 5.8 0 16-3.7 21.5-7.9 11.7-8.8 17.7-24.7 21.9-58.1 1.1-8.7 1.4-34.6.5-39.4-3-14.9-10-19-25.5-15.2zm-3 12.2c2.2.9 5.2 7 6.3 13.3 1.2 6.6.8 28.6-.7 40.1-2.5 18.8-8 39.9-10.5 40.1-3.3.2-6.4 1.2-9.4 2.9-1.8 1.1-3.5 2-3.8 2-.3 0-.3-6.4.1-14.3.4-7.8.8-17.8 1-22.2 1.3-28.9 1.7-32.6 3.9-39.7 2.7-8.3 6.1-16 8.8-20.1 2.1-3 2-2.9 4.3-2.1z"/></svg>